<svg width="120" height="120" viewBox="0 0 120 120" fill="none" xmlns="http://www.w3.org/2000/svg">
  <!-- Círculo externo dourado -->
  <circle cx="60" cy="60" r="58" stroke="#D4AF37" stroke-width="4" fill="none"/>
  
  <!-- Círculo interno -->
  <circle cx="60" cy="60" r="50" fill="#1A1A1A" stroke="#D4AF37" stroke-width="1"/>
  
  <!-- Letra B estilizada -->
  <g transform="translate(35, 25)">
    <!-- Haste vertical principal -->
    <rect x="0" y="0" width="8" height="70" fill="#D4AF37"/>
    
    <!-- Primeira curva superior -->
    <path d="M8 0 L35 0 Q45 0 45 12 Q45 20 40 24 Q45 28 45 40 Q45 52 35 52 L8 52" 
          stroke="#D4AF37" stroke-width="8" fill="none" stroke-linecap="round" stroke-linejoin="round"/>
    
    <!-- Segunda curva inferior -->
    <path d="M8 35 L38 35 Q50 35 50 52 Q50 70 38 70 L8 70" 
          stroke="#D4AF37" stroke-width="8" fill="none" stroke-linecap="round" stroke-linejoin="round"/>
  </g>
  
  <!-- Elementos decorativos -->
  <g opacity="0.3">
    <!-- Pequenos detalhes ornamentais -->
    <circle cx="25" cy="25" r="2" fill="#D4AF37"/>
    <circle cx="95" cy="25" r="2" fill="#D4AF37"/>
    <circle cx="25" cy="95" r="2" fill="#D4AF37"/>
    <circle cx="95" cy="95" r="2" fill="#D4AF37"/>
  </g>
  
  <!-- Texto ADVOCACIA na parte inferior -->
  <text x="60" y="105" text-anchor="middle" font-family="serif" font-size="8" font-weight="300" 
        fill="#D4AF37" letter-spacing="2px">ADVOCACIA</text>
</svg>